<svg fill="none" height="36" viewBox="0 0 127 36" width="127" xmlns="http://www.w3.org/2000/svg" xmlns:xlink="http://www.w3.org/1999/xlink">
  <clipPath id="a">
    <path d="m0 0h126.735v36h-126.735z"/>
  </clipPath>
  <g clip-path="url(#a)" fill="#FFFFFF">
    <path d="m19.7016 35.9257c-.6628.0193-1.3078-.2159-1.803-.6574-.4951-.4414-.8029-1.0557-.8602-1.7169l-.2997-2.3514c-2.8544-.8143-4.5243-2.9286-4.9581-6.2857l-2.56904-19.81145c-.55108-.08877-1.10889-.12892-1.66699-.12-.82607-.00677-1.64917.09994-2.44626.31714v30.04571h-5.040937v-24.1514c0-3.27717 1.470037-5.59145 4.147497-6.55431v-1.55714c0-1.8 1.09325-3.0085746 2.71743-3.0085746s2.64321 1.0114246 2.90582 2.8571446l.19978 1.44286c2.9315.82 4.6442 3.17714 5.1523 7.00282l2.3749 19.0972c1.4189.2743 2.8771.2743 4.2959 0l2.3749-19.0943c.4967-3.82858 2.2293-6.18572 5.1523-7.0143l.1998-1.44285c.2626-1.83715 1.2959-2.8571457 2.9058-2.8571457s2.7174 1.2085757 2.7174 3.0085757v1.55714c2.6775.96286 4.1475 3.27714 4.1475 6.55428v24.1514h-5.0466v-30.03997c-.7971-.2172-1.6202-.32391-2.4463-.31714-.5581-.00892-1.1159.03123-1.667.12l-2.569 19.81431c-.4253 3.2971-2.1351 5.4628-4.9581 6.2857l-.2826 2.3543c-.0441.6686-.3501 1.2928-.8515 1.7369-.5013.4441-1.1575.6721-1.826.6345zm-2.0295-4.4971.2598 2.0257c.0272.4442.2283.8597.5596 1.1566.3312.2968.766.451 1.2101.4291.221.0159.4428-.0128.6525-.0843s.4029-.1844.5682-.332.2993-.3269.3941-.5273.1485-.4177.1578-.6393l.2598-2.0285c-1.345.2209-2.7169.2209-4.0619 0zm17.5291 3.0314h3.2484v-23.2657c0-2.77717-1.119-4.69431-3.2484-5.5886zm-34.253242 0h3.256912v-28.8543c-2.12655.89429-3.234076 2.81143-3.234076 5.5886zm9.208442-29.11144 2.5176 19.44854c.3597 2.8143 1.687 4.6343 3.942 5.4286l-2.3264-18.7371c-.4282-3.3029-1.784-5.32004-4.1332-6.14004zm19.0933 0c-2.3492.82-3.7107 2.83715-4.1332 6.14284l-2.3264 18.7229c2.2579-.7943 3.5824-2.6143 3.942-5.4286zm-24.14568-.99428c.8007-.19489 1.62224-.29085 2.44626-.28572.5153-.00544 1.03035.02511 1.54139.09143l-.15413-1.12286c-.19696-1.37714-.87632-2.074283-2.01524-2.074283s-1.81828.808573-1.81828 2.108573zm26.75178-.28572c.824-.00513 1.6456.09083 2.4463.28572v-1.27143c0-1.3-.6965-2.108574-1.8183-2.108574s-1.8183.697144-2.0152 2.074284l-.1542 1.12286c.5111-.06633 1.0261-.09688 1.5414-.09143z"/>
    <!-- Other paths remain unchanged -->
  </g>
</svg>
